HIERARCHY
ROOT Hips
{
	OFFSET 0.000000 100.481300 0.000000
	CHANNELS 6 Xposition Yposition Zposition Xrotation Yrotation Zrotation
	JOINT Spine
	{
		OFFSET -0.279200 12.230698 -2.892100
		CHANNELS 3 Xrotation Yrotation Zrotation
		JOINT Spine1
		{
			OFFSET -0.325700 14.269203 -3.374200
			CHANNELS 3 Xrotation Yrotation Zrotation
			JOINT Spine2
			{
				OFFSET -0.372300 16.307602 -0.352600
				CHANNELS 3 Xrotation Yrotation Zrotation
				JOINT Neck
				{
					OFFSET -0.418800 17.814194 8.416900
					CHANNELS 3 Xrotation Yrotation Zrotation
					JOINT Head
					{
						OFFSET 0.000000 7.031097 3.806800
						CHANNELS 3 Xrotation Yrotation Zrotation
						JOINT HeadTop_End
						{
							OFFSET 0.000000 24.646606 12.978600
							CHANNELS 3 Xrotation Yrotation Zrotation
							End Site
							{
								OFFSET 0.000000 27.854965 0.000000
							}
						}
					}
				}
				JOINT LeftShoulder
				{
					OFFSET 16.952999 14.495407 -7.737500
					CHANNELS 3 Xrotation Yrotation Zrotation
					JOINT LeftArm
					{
						OFFSET 9.308998 -2.777710 0.208600
						CHANNELS 3 Xrotation Yrotation Zrotation
						JOINT LeftForeArm
						{
							OFFSET 29.972298 0.000000 0.000000
							CHANNELS 3 Xrotation Yrotation Zrotation
							JOINT LeftHand
							{
								OFFSET 26.026505 0.000000 0.000000
								CHANNELS 3 Xrotation Yrotation Zrotation
								JOINT LeftHandThumb1
								{
									OFFSET 12.240501 -7.147949 9.207150
									CHANNELS 3 Xrotation Yrotation Zrotation
									JOINT LeftHandThumb2
									{
										OFFSET 4.138618 -2.389435 2.389433
										CHANNELS 3 Xrotation Yrotation Zrotation
										JOINT LeftHandThumb3
										{
											OFFSET 2.726913 -1.574387 1.574386
											CHANNELS 3 Xrotation Yrotation Zrotation
											JOINT LeftHandThumb4
											{
												OFFSET 3.941010 -2.275345 2.275342
												CHANNELS 3 Xrotation Yrotation Zrotation
												End Site
												{
													OFFSET -0.005798 5.087799 0.009903
												}
											}
										}
									}
								}
								JOINT LeftHandIndex1
								{
									OFFSET 24.424698 -1.985611 5.953459
									CHANNELS 3 Xrotation Yrotation Zrotation
									JOINT LeftHandIndex2
									{
										OFFSET 6.426697 0.000000 0.000000
										CHANNELS 3 Xrotation Yrotation Zrotation
										JOINT LeftHandIndex3
										{
											OFFSET 5.337898 0.000000 0.000000
											CHANNELS 3 Xrotation Yrotation Zrotation
											JOINT LeftHandIndex4
											{
												OFFSET 4.409401 0.000000 0.000000
												CHANNELS 3 Xrotation Yrotation Zrotation
												End Site
												{
													OFFSET 0.000000 4.409363 0.014373
												}
											}
										}
									}
								}
								JOINT LeftHandMiddle1
								{
									OFFSET 23.810104 0.000000 0.000000
									CHANNELS 3 Xrotation Yrotation Zrotation
									JOINT LeftHandMiddle2
									{
										OFFSET 7.176498 0.000000 0.000000
										CHANNELS 3 Xrotation Yrotation Zrotation
										JOINT LeftHandMiddle3
										{
											OFFSET 6.774902 0.000000 0.000000
											CHANNELS 3 Xrotation Yrotation Zrotation
											JOINT LeftHandMiddle4
											{
												OFFSET 5.403328 0.000000 0.000000
												CHANNELS 3 Xrotation Yrotation Zrotation
												End Site
												{
													OFFSET -0.027702 5.403244 0.017414
												}
											}
										}
									}
								}
								JOINT LeftHandRing1
								{
									OFFSET 22.908401 -0.839279 -6.020567
									CHANNELS 3 Xrotation Yrotation Zrotation
									JOINT LeftHandRing2
									{
										OFFSET 6.337502 0.000000 0.000000
										CHANNELS 3 Xrotation Yrotation Zrotation
										JOINT LeftHandRing3
										{
											OFFSET 5.779297 0.000000 0.000000
											CHANNELS 3 Xrotation Yrotation Zrotation
											JOINT LeftHandRing4
											{
												OFFSET 4.965698 0.000000 0.000000
												CHANNELS 3 Xrotation Yrotation Zrotation
												End Site
												{
													OFFSET 0.000000 4.965668 0.016186
												}
											}
										}
									}
								}
								JOINT LeftHandPinky1
								{
									OFFSET 20.037003 -1.530319 -10.950146
									CHANNELS 3 Xrotation Yrotation Zrotation
									JOINT LeftHandPinky2
									{
										OFFSET 5.254700 0.000000 0.000000
										CHANNELS 3 Xrotation Yrotation Zrotation
										JOINT LeftHandPinky3
										{
											OFFSET 4.810204 0.000000 0.000000
											CHANNELS 3 Xrotation Yrotation Zrotation
											JOINT LeftHandPinky4
											{
												OFFSET 3.647202 0.000000 0.000000
												CHANNELS 3 Xrotation Yrotation Zrotation
												End Site
												{
													OFFSET 0.000000 3.647186 0.011889
												}
											}
										}
									}
								}
							}
						}
					}
				}
				JOINT RightShoulder
				{
					OFFSET -15.141001 14.495407 -7.737500
					CHANNELS 3 Xrotation Yrotation Zrotation
					JOINT RightArm
					{
						OFFSET -9.308998 -2.777710 0.208500
						CHANNELS 3 Xrotation Yrotation Zrotation
						JOINT RightForeArm
						{
							OFFSET -29.972300 0.000000 0.000000
							CHANNELS 3 Xrotation Yrotation Zrotation
							JOINT RightHand
							{
								OFFSET -26.026505 0.000000 0.000000
								CHANNELS 3 Xrotation Yrotation Zrotation
								JOINT RightHandThumb1
								{
									OFFSET -12.240601 -7.148026 9.207092
									CHANNELS 3 Xrotation Yrotation Zrotation
									JOINT RightHandThumb2
									{
										OFFSET -4.138618 -2.389435 2.389433
										CHANNELS 3 Xrotation Yrotation Zrotation
										JOINT RightHandThumb3
										{
											OFFSET -2.726974 -1.574417 1.574421
											CHANNELS 3 Xrotation Yrotation Zrotation
											JOINT RightHandThumb4
											{
												OFFSET -3.941010 -2.275345 2.275343
												CHANNELS 3 Xrotation Yrotation Zrotation
												End Site
												{
													OFFSET 0.005814 5.087799 0.009927
												}
											}
										}
									}
								}
								JOINT RightHandIndex1
								{
									OFFSET -24.424698 -1.985657 5.953444
									CHANNELS 3 Xrotation Yrotation Zrotation
									JOINT RightHandIndex2
									{
										OFFSET -6.426697 0.000000 0.000000
										CHANNELS 3 Xrotation Yrotation Zrotation
										JOINT RightHandIndex3
										{
											OFFSET -5.337898 0.000000 0.000000
											CHANNELS 3 Xrotation Yrotation Zrotation
											JOINT RightHandIndex4
											{
												OFFSET -4.409401 0.000000 0.000000
												CHANNELS 3 Xrotation Yrotation Zrotation
												End Site
												{
													OFFSET 0.000000 4.409363 0.014408
												}
											}
										}
									}
								}
								JOINT RightHandMiddle1
								{
									OFFSET -23.810097 0.000000 0.000000
									CHANNELS 3 Xrotation Yrotation Zrotation
									JOINT RightHandMiddle2
									{
										OFFSET -7.176498 0.000000 0.000000
										CHANNELS 3 Xrotation Yrotation Zrotation
										JOINT RightHandMiddle3
										{
											OFFSET -6.774902 0.000000 0.000000
											CHANNELS 3 Xrotation Yrotation Zrotation
											JOINT RightHandMiddle4
											{
												OFFSET -5.403328 0.000000 0.000000
												CHANNELS 3 Xrotation Yrotation Zrotation
												End Site
												{
													OFFSET 0.027702 5.403244 0.017457
												}
											}
										}
									}
								}
								JOINT RightHandRing1
								{
									OFFSET -22.908302 -0.839325 -6.020576
									CHANNELS 3 Xrotation Yrotation Zrotation
									JOINT RightHandRing2
									{
										OFFSET -6.337502 0.000000 0.000000
										CHANNELS 3 Xrotation Yrotation Zrotation
										JOINT RightHandRing3
										{
											OFFSET -5.779297 0.000000 0.000000
											CHANNELS 3 Xrotation Yrotation Zrotation
											JOINT RightHandRing4
											{
												OFFSET -4.965698 0.000000 0.000000
												CHANNELS 3 Xrotation Yrotation Zrotation
												End Site
												{
													OFFSET 0.000000 4.965668 0.016226
												}
											}
										}
									}
								}
								JOINT RightHandPinky1
								{
									OFFSET -20.037003 -1.530334 -10.950259
									CHANNELS 3 Xrotation Yrotation Zrotation
									JOINT RightHandPinky2
									{
										OFFSET -5.254700 0.000000 0.000000
										CHANNELS 3 Xrotation Yrotation Zrotation
										JOINT RightHandPinky3
										{
											OFFSET -4.810204 0.000000 0.000000
											CHANNELS 3 Xrotation Yrotation Zrotation
											JOINT RightHandPinky4
											{
												OFFSET -3.647202 0.000000 0.000000
												CHANNELS 3 Xrotation Yrotation Zrotation
												End Site
												{
													OFFSET 0.000000 3.647186 0.011917
												}
											}
										}
									}
								}
							}
						}
					}
				}
			}
		}
	}
	JOINT LeftUpLeg
	{
		OFFSET 15.427100 -6.655098 0.678600
		CHANNELS 3 Xrotation Yrotation Zrotation
		JOINT LeftLeg
		{
			OFFSET 4.081073 -39.591068 13.024000
			CHANNELS 3 Xrotation Yrotation Zrotation
			JOINT LeftFoot
			{
				OFFSET -4.081074 -37.707932 -15.979700
				CHANNELS 3 Xrotation Yrotation Zrotation
				JOINT LeftToeBase
				{
					OFFSET 5.346399 -15.068900 20.645000
					CHANNELS 3 Xrotation Yrotation Zrotation
					JOINT LeftToe_End
					{
						OFFSET 2.754700 0.931300 11.300900
						CHANNELS 3 Xrotation Yrotation Zrotation
						End Site
						{
							OFFSET 0.000000 11.669021 0.000000
						}
					}
				}
			}
		}
	}
	JOINT RightUpLeg
	{
		OFFSET -15.569500 -6.655098 0.678600
		CHANNELS 3 Xrotation Yrotation Zrotation
		JOINT RightLeg
		{
			OFFSET -4.081825 -39.591045 13.023800
			CHANNELS 3 Xrotation Yrotation Zrotation
			JOINT RightFoot
			{
				OFFSET 4.081824 -37.707954 -15.979600
				CHANNELS 3 Xrotation Yrotation Zrotation
				JOINT RightToeBase
				{
					OFFSET -5.346400 -15.068900 20.645000
					CHANNELS 3 Xrotation Yrotation Zrotation
					JOINT RightToe_End
					{
						OFFSET -2.754700 0.931300 11.300900
						CHANNELS 3 Xrotation Yrotation Zrotation
						End Site
						{
							OFFSET 0.000000 11.669021 0.000000
						}
					}
				}
			}
		}
	}
}
MOTION
Frames: 4
Frame Time: 0.033333
-5.773158 68.442970 186.939941 1.502919 -41.331838 2.065927 21.154441 -0.799207 4.034311 0.250966 -1.834500 0.018803 0.227669 -1.836977 0.069214 8.912500 14.389552 -6.968082 1.718802 12.970655 7.231720 0.000002 0.000001 -0.000003 0.586508 -12.465838 -10.224226 -71.339509 -20.106448 -39.582128 0.000006 -58.220601 -0.000003 -127.709156 3.745063 32.474650 1.567995 0.456395 2.719341 19.473189 -1.474905 7.636922 -4.536181 -9.613116 1.492979 -0.000003 -0.000001 0.000001 -1.882818 2.129423 -39.817015 2.947082 5.081732 -60.200529 0.514384 2.402410 -24.167359 -0.000003 0.000000 -0.000001 0.405912 5.507047 -52.453169 3.387140 5.308630 -65.057456 0.282018 1.797455 -17.832388 0.000001 0.000000 0.000001 -0.074368 5.736795 -61.061420 4.422092 5.674483 -75.840371 0.582671 2.548971 -25.748001 0.000001 -0.000002 -0.000001 2.216809 7.072463 -64.435431 4.422621 5.674616 -75.845767 1.294133 3.673946 -38.798463 0.000001 -0.000001 0.000000 0.561619 8.625444 12.478332 -58.443893 67.523114 67.500847 0.000343 94.994128 -0.000386 -57.043308 -23.208385 -35.519087 8.377134 -4.904125 11.022014 21.620199 -18.183890 -18.379228 -0.702879 -49.821206 -32.535138 0.000001 0.000001 -0.000002 -1.101407 1.407144 15.159516 1.422355 -3.352176 45.974096 0.615857 -2.316433 29.773112 0.000000 0.000000 -0.000000 3.413045 -7.186244 51.650239 6.296815 -4.359597 110.634660 0.248721 -1.503053 18.790255 -0.000000 0.000000 -0.000000 -3.349055 -2.600427 57.010575 5.440869 -4.590920 99.698174 1.689418 -3.590700 50.382242 0.000000 -0.000001 0.000000 -3.996454 -3.303934 64.593857 4.058854 -4.618652 82.610523 2.315530 -4.026785 59.787234 0.000000 0.000001 -0.000001 -76.800921 2.882007 29.697423 84.038135 -1.685102 0.152716 -16.684880 24.564015 9.038085 -4.734253 0.000006 0.000000 0.000001 -0.000001 -0.000000 -17.027545 3.802312 -8.810259 69.302986 3.862109 -3.058042 -54.411114 11.933362 -1.480158 -11.335190 0.000010 -0.000004 -0.000000 -0.000002 -0.000001 
-6.078562 73.439949 194.682785 2.650353 -42.525557 3.562967 20.397781 -0.198155 2.550097 0.284969 -1.734956 0.024279 0.260095 -1.737644 0.071340 8.506522 14.445563 -6.906598 1.702511 13.238181 7.972688 0.000002 0.000000 -0.000000 0.579260 -11.783879 -9.963815 -70.540691 -20.285766 -39.760133 0.000001 -59.589446 0.000006 -128.017375 3.119547 32.560714 1.567994 0.456395 2.719341 19.473190 -1.474906 7.636922 -4.536180 -9.613111 1.492981 0.000000 -0.000004 0.000002 -1.882819 2.129422 -39.817011 2.947082 5.081732 -60.200529 0.514382 2.402409 -24.167361 0.000003 0.000001 0.000001 0.405912 5.507044 -52.453172 3.387141 5.308622 -65.057456 0.282018 1.797451 -17.832383 -0.000002 0.000002 0.000002 -0.074368 5.736791 -61.061420 4.422097 5.674481 -75.840378 0.582668 2.548970 -25.748001 0.000001 -0.000001 -0.000001 2.216809 7.072460 -64.435431 4.422619 5.674616 -75.845767 1.294132 3.673945 -38.798463 -0.000001 0.000001 0.000000 0.571284 8.435976 12.312792 -56.877512 67.544417 66.221163 0.000494 96.176672 -0.000457 -56.955923 -22.578872 -36.187145 8.377133 -4.904124 11.022014 21.620199 -18.183891 -18.379231 -0.702877 -49.821206 -32.535145 -0.000000 0.000002 -0.000001 -1.101407 1.407144 15.159516 1.422353 -3.352177 45.974096 0.615856 -2.316435 29.773116 -0.000000 0.000001 0.000000 3.413046 -7.186244 51.650235 6.296815 -4.359597 110.634660 0.248721 -1.503053 18.790257 0.000000 0.000000 0.000000 -3.349054 -2.600427 57.010571 5.440872 -4.590919 99.698174 1.689418 -3.590701 50.382238 0.000000 -0.000000 0.000001 -3.996453 -3.303934 64.593857 4.058853 -4.618653 82.610523 2.315531 -4.026785 59.787234 0.000001 0.000001 0.000001 -77.437816 -0.466128 32.529732 70.442248 -0.491743 -1.111285 -14.653706 20.339815 3.895428 -4.545709 0.000002 -0.000003 0.000000 0.000000 0.000001 -11.303290 0.008374 -13.786941 58.856635 9.647309 -5.501018 -48.120407 11.040902 0.543986 -11.898558 -0.000007 -0.000004 -0.000000 -0.000002 -0.000001 
-6.468481 80.212738 203.041107 2.575138 -43.191569 3.529457 19.032568 0.290412 2.458081 0.492716 -1.669788 0.104282 0.466645 -1.670314 0.149781 8.778704 14.497724 -6.993200 2.616631 13.449880 8.260588 -0.000000 -0.000001 0.000001 0.540470 -11.430146 -10.132660 -67.777442 -19.678154 -39.986031 0.000060 -60.690862 0.000062 -128.082357 2.593598 31.147917 1.567995 0.456397 2.719341 19.473190 -1.474903 7.636922 -4.536184 -9.613109 1.492980 0.000001 -0.000003 0.000001 -1.882818 2.129427 -39.817015 2.947086 5.081726 -60.200529 0.514383 2.402411 -24.167363 0.000000 -0.000001 -0.000001 0.405912 5.507047 -52.453169 3.387136 5.308624 -65.057456 0.282019 1.797453 -17.832384 0.000001 0.000002 0.000002 -0.074368 5.736799 -61.061427 4.422096 5.674482 -75.840371 0.582668 2.548969 -25.748003 0.000001 -0.000002 -0.000000 2.216809 7.072465 -64.435431 4.422620 5.674616 -75.845767 1.294131 3.673946 -38.798459 -0.000000 0.000001 0.000000 0.563922 8.278431 12.344271 -50.150247 67.694292 61.368997 0.001286 96.987778 -0.001295 -55.805934 -21.143073 -35.855092 8.377133 -4.904124 11.022014 21.620199 -18.183891 -18.379228 -0.702879 -49.821206 -32.535145 0.000002 0.000000 -0.000002 -1.101406 1.407143 15.159514 1.422355 -3.352178 45.974096 0.615856 -2.316434 29.773119 -0.000000 -0.000000 0.000000 3.413046 -7.186244 51.650235 6.296814 -4.359597 110.634660 0.248721 -1.503053 18.790257 0.000000 -0.000000 -0.000000 -3.349055 -2.600427 57.010575 5.440870 -4.590918 99.698174 1.689417 -3.590700 50.382245 -0.000000 0.000000 -0.000001 -3.996453 -3.303935 64.593857 4.058855 -4.618655 82.610530 2.315528 -4.026785 59.787234 0.000001 -0.000000 -0.000001 -73.610014 0.078742 33.720740 56.253418 1.168597 -0.966985 -15.496552 21.734260 1.207799 -5.211580 0.000007 0.000004 -0.000001 -0.000000 0.000000 -6.223311 -4.459844 -16.763204 47.398747 13.788565 -8.297787 -34.631347 10.558129 4.358289 -19.370686 -0.000002 -0.000001 -0.000000 0.000001 -0.000000 
-6.682909 86.520065 211.503296 1.616598 -44.190774 3.039879 17.761176 0.690945 2.966080 0.858836 -1.613373 0.040518 0.832099 -1.616089 0.085784 9.432887 14.648037 -7.428714 3.488864 13.947932 8.063154 -0.000001 0.000000 -0.000002 0.490470 -11.301575 -10.522524 -65.400537 -18.782168 -39.606785 0.000004 -61.327907 -0.000006 -128.371165 2.494723 29.803472 1.567995 0.456393 2.719342 19.473189 -1.474908 7.636921 -4.536186 -9.613114 1.492981 -0.000001 0.000004 -0.000003 -1.882818 2.129421 -39.817011 2.947085 5.081728 -60.200529 0.514387 2.402411 -24.167359 -0.000002 0.000001 -0.000002 0.405912 5.507047 -52.453162 3.387141 5.308622 -65.057456 0.282010 1.797453 -17.832381 0.000001 0.000001 -0.000001 -0.074368 5.736794 -61.061413 4.422092 5.674483 -75.840371 0.582667 2.548970 -25.748000 0.000001 0.000002 0.000000 2.216809 7.072460 -64.435438 4.422623 5.674616 -75.845767 1.294133 3.673949 -38.798459 -0.000002 -0.000000 0.000000 0.551566 8.304570 12.493959 -44.818530 68.573487 57.279104 0.001713 96.859466 -0.001686 -55.167783 -19.752818 -35.635498 8.377133 -4.904124 11.022011 21.620199 -18.183891 -18.379225 -0.702885 -49.821203 -32.535142 -0.000002 0.000001 -0.000001 -1.101408 1.407144 15.159514 1.422353 -3.352178 45.974092 0.615856 -2.316433 29.773112 -0.000001 0.000000 -0.000000 3.413045 -7.186244 51.650242 6.296815 -4.359597 110.634660 0.248721 -1.503053 18.790255 -0.000000 -0.000000 -0.000000 -3.349055 -2.600427 57.010571 5.440870 -4.590920 99.698168 1.689419 -3.590701 50.382245 -0.000000 0.000000 0.000000 -3.996455 -3.303934 64.593857 4.058854 -4.618654 82.610530 2.315530 -4.026785 59.787234 -0.000000 0.000002 0.000000 -68.195996 2.516361 34.215853 43.806965 2.570567 -0.210376 -17.096170 24.735296 -0.340881 -5.106782 0.000002 0.000001 -0.000002 -0.000000 -0.000000 -5.520312 -8.161034 -21.843768 38.826815 12.323932 -9.042382 -13.401202 16.920540 10.964074 -34.192627 -0.000001 0.000003 0.000001 -0.000001 -0.000000 
